<?xml version="1.0" encoding="UTF-8"?>
<svg id="Layer_1" xmlns="http://www.w3.org/2000/svg" version="1.1" viewBox="0 0 51.8 51.9">
  <!-- Generator: Adobe Illustrator 29.6.1, SVG Export Plug-In . SVG Version: 2.1.1 Build 9)  -->
  <defs>
    <style>
      .st0 {
        fill: #32afb2;
      }

      .st1 {
        fill: #ffeed9;
      }
    </style>
  </defs>
  <rect class="st0" y="0" width="51.8" height="51.8"/>
  <path class="st1" d="M13,41.6c0,.4.5.7.8.7h.7c.2,0,.6-.2.8-.4l10.5-19.6h0l10.5,19.6c.1.3.6.4.8.4h.7c.4,0,.8-.3.8-.7l5.1-30.5c0-.6-.3-1-.9-1h-5.4c-.4,0-.8.4-.9.7l-2,14h0l-7.7-14.7c-.1-.3-.5-.5-.8-.5h-.8c-.2,0-.6.2-.8.5l-7.6,14.7h0l-2-14c0-.4-.5-.7-.9-.7h-5.4c-.5,0-1,.4-.9,1l5.1,30.5Z"/>
</svg>